<svg width="18" height="18" viewBox="0 0 18 18" fill="none" xmlns="http://www.w3.org/2000/svg">
<path d="M5.71887 2.43738C4.84936 2.43998 4.01621 2.78654 3.40138 3.40138C2.78654 4.01621 2.43998 4.84936 2.43738 5.71887V12.2811C2.43998 13.1506 2.78654 13.9838 3.40138 14.5986C4.01621 15.2135 4.84936 15.56 5.71887 15.5626H12.2811C13.1506 15.56 13.9838 15.2135 14.5986 14.5986C15.2135 13.9838 15.56 13.1506 15.5626 12.2811V5.71887C15.56 4.84936 15.2135 4.01621 14.5986 3.40138C13.9838 2.78654 13.1506 2.43998 12.2811 2.43738H5.71887ZM5.71887 1.125H12.2811C14.8078 1.125 16.875 3.19219 16.875 5.71887V12.2811C16.875 14.8078 14.8078 16.875 12.2811 16.875H5.71887C3.19219 16.875 1.125 14.8078 1.125 12.2811V5.71887C1.125 3.19219 3.19219 1.125 5.71887 1.125Z" fill="#DBDBDB"/>
<path d="M4.73449 5.71875C4.92918 5.71875 5.11949 5.66102 5.28137 5.55285C5.44325 5.44469 5.56942 5.29095 5.64393 5.11108C5.71843 4.93121 5.73793 4.73328 5.69995 4.54233C5.66196 4.35138 5.56821 4.17598 5.43054 4.03832C5.29288 3.90065 5.11748 3.8069 4.92653 3.76891C4.73558 3.73093 4.53765 3.75043 4.35778 3.82493C4.17791 3.89944 4.02417 4.02561 3.91601 4.18749C3.80784 4.34937 3.75011 4.53968 3.75011 4.73437C3.74983 4.86372 3.7751 4.99185 3.82447 5.11141C3.87385 5.23096 3.94634 5.33959 4.03781 5.43105C4.12927 5.52252 4.2379 5.59501 4.35745 5.64438C4.47701 5.69376 4.60514 5.71903 4.73449 5.71875Z" fill="#DBDBDB"/>
<path d="M8.99999 6.37488C8.48079 6.37488 7.97325 6.52884 7.54156 6.8173C7.10986 7.10575 6.77339 7.51573 6.5747 7.99541C6.37601 8.47509 6.32403 9.00291 6.42532 9.51214C6.52661 10.0214 6.77663 10.4891 7.14375 10.8562C7.51088 11.2234 7.97863 11.4734 8.48786 11.5747C8.99708 11.676 9.5249 11.624 10.0046 11.4253C10.4843 11.2266 10.8942 10.8901 11.1827 10.4584C11.4711 10.0267 11.6251 9.5192 11.6251 9C11.6244 8.304 11.3476 7.63673 10.8554 7.14458C10.3633 6.65244 9.69599 6.37563 8.99999 6.37488ZM8.99999 5.0625C9.77876 5.0625 10.54 5.29343 11.1875 5.72609C11.8351 6.15875 12.3397 6.7737 12.6378 7.49318C12.9358 8.21267 13.0138 9.00437 12.8618 9.76817C12.7099 10.532 12.3349 11.2336 11.7842 11.7842C11.2336 12.3349 10.532 12.7099 9.76816 12.8618C9.00436 13.0138 8.21266 12.9358 7.49318 12.6378C6.77369 12.3398 6.15874 11.8351 5.72608 11.1876C5.29342 10.54 5.06249 9.77876 5.06249 9C5.06249 7.95571 5.47734 6.95419 6.21576 6.21577C6.95418 5.47734 7.9557 5.0625 8.99999 5.0625Z" fill="#DBDBDB"/>
</svg>
