<svg width="16" height="16" viewBox="0 0 16 16" fill="none" xmlns="http://www.w3.org/2000/svg">
<path d="M8.00175 0.125C3.65293 0.125 0.126755 3.65117 0.126755 8C0.126755 11.2238 2.06738 13.9941 4.84121 15.2141C4.82011 14.6656 4.83769 14.0047 4.97832 13.407C5.12949 12.7672 5.99082 9.11445 5.99082 9.11445C5.99082 9.11445 5.73769 8.61172 5.73769 7.86992C5.73769 6.70273 6.41269 5.83086 7.25644 5.83086C7.97363 5.83086 8.31816 6.36875 8.31816 7.01211C8.31816 7.73281 7.85761 8.80859 7.62207 9.80703C7.42519 10.6438 8.04043 11.3223 8.8666 11.3223C10.3572 11.3223 11.3627 9.40625 11.3627 7.13516C11.3627 5.40898 10.199 4.11875 8.08613 4.11875C5.69902 4.11875 4.2084 5.90117 4.2084 7.89102C4.2084 8.57656 4.4123 9.06172 4.72871 9.43437C4.87285 9.60664 4.89394 9.67695 4.84121 9.87383C4.80254 10.018 4.71816 10.366 4.67949 10.5066C4.62675 10.707 4.46504 10.7773 4.28574 10.7035C3.18535 10.2535 2.67207 9.05117 2.67207 7.69414C2.67207 5.4582 4.55996 2.77578 8.30058 2.77578C11.3064 2.77578 13.2857 4.95195 13.2857 7.28633C13.2857 10.3766 11.5666 12.6828 9.03535 12.6828C8.18457 12.6828 7.38652 12.2223 7.1123 11.702C7.1123 11.702 6.65527 13.516 6.55683 13.8676C6.3916 14.4758 6.06465 15.0805 5.76582 15.5551C6.4907 15.7689 7.24247 15.8778 7.99824 15.8785C12.3471 15.8785 15.8732 12.3523 15.8732 8.00352C15.8732 3.65469 12.3506 0.125 8.00175 0.125Z" fill="#DBDBDB"/>
</svg>
